<svg xmlns="http://www.w3.org/2000/svg" viewBox="0 0 468.53 484.48"><defs><style>.a{fill:#757575;}</style></defs><title>JapariPark-logo</title><path class="a" d="M279,225.5A171.5,171.5,0,1,1,107.5,397,171.5,171.5,0,0,1,279,225.5Zm111.5,112c0-4.56.21-9.28-1-13,0,0-2-8-9-8s-19,4-29,10c-4,2-6,4-11,4-3.47,0-8-3-13-6-9.77-5.86-23-10.87-29-12-11.47-2.17-25.74-4.12-44-1-11,2-11,3-19-4-11-10-14-12.58-20-18-8-7-12-7-17,0-5.33,6.86-9,14-9,26,0,13,4,20,10,22-22.42,24.73-32,50-32,77,0,44,30,71,64,71,46,0,70-33,70-65,0-19-15-31-29-31-12,0-29,10-29,27,0,9-2,11-8,11-10,0-10-6-10-13,0-18,9-37,31-44,9-2.88,19-3,29-1,30.48,7.2,43.43,27.51,37,64-2,10-5,13.91-10,18-10,9-11,14.55-11,23,0,5.07.5,10.38,5,16,9.94,12.09,22,17.95,39,9,31-18,47-68,30-121-3-8-2-10,7-17C388.5,356.5,390.47,347.25,390.5,337.5Z" transform="translate(-80.9 -84.02)"/><path class="a" d="M203.39,212.09c11.23-7.93,10.23-19.17-2.23-25l-99.72-46.54C89,134.75,79.79,141.2,81,154.89l9.83,110.17c1.22,13.7,11.41,18.41,22.65,10.48Z" transform="translate(-80.9 -84.02)"/><path class="a" d="M366.21,217.7c13.56,2.3,20.77-6.38,16-19.29L344.36,95.1c-4.73-12.91-15.8-14.82-24.59-4.25L249.05,175.9c-8.79,10.57-4.89,21.1,8.67,23.4Z" transform="translate(-80.9 -84.02)"/><path class="a" d="M547.23,236.19c5.89-12.42-.5-21.73-14.21-20.68L423.3,223.92c-13.71,1.05-18.55,11.18-10.77,22.51l62.65,91.15c7.79,11.33,19,10.44,24.88-2Z" transform="translate(-80.9 -84.02)"/></svg>
